<svg id="icons" xmlns="http://www.w3.org/2000/svg" viewBox="0 0 260 260"><defs><style>.cls-1{fill:#237aba;}</style></defs><title>1</title><path class="cls-1" d="M218.3,217.06A32.12,32.12,0,0,1,190.47,201h21.4l12.86-12.86H186.32c-.1-1.06-.16-2.13-.16-3.21s.06-2.16.16-3.21h25.55l12.86-12.86H190.47A32.14,32.14,0,0,1,241,162.19l9.09-9.09a45,45,0,0,0-76.68,28.47v.14c-.08,1.06-.13,2.13-.13,3.21a45,45,0,0,0,76.82,31.82L241,207.64A32,32,0,0,1,218.3,217.06Z"/><path class="cls-1" d="M195.92,134.64c0-1.39,0-2.79,0-4.2,0-66.17-32.08-110-87.94-110-55.57,0-88.23,43.83-88.23,110s32.66,110,88.23,110c26.56,0,47.75-9.92,62.66-27.43a54.94,54.94,0,0,1,25.23-78.37ZM108,204.06c-26.64,0-41.82-25.21-41.82-73.62S80.53,57.68,108,57.68c26.64,0,41.82,24.35,41.82,72.76S135.24,204.06,108,204.06Z"/></svg>