<svg xmlns="http://www.w3.org/2000/svg" viewBox="0 0 260 260"><defs><style>.cls-1{fill:#237aba}</style></defs><title>4</title><g id="icons"><path class="cls-1" d="M124.43 113.3l8.93-13.54c2.26-3.39 2.74-5.34 2.74-7.72a12.35 12.35 0 0 0-12.38-12H110v80h7.6c12.73 0 22.39-7.17 22.39-23.53.01-13.51-6.23-20.92-15.56-23.21z"/><path class="cls-1" d="M240 30H20c-5.53 0-10 4.07-10 9.56v210.06L50 210h190a10.3 10.3 0 0 0 10-10.31V39.56c0-5.49-4.49-9.56-10-9.56zM134 170H90V70h45.57c21.36 0 28.81 16.44 18 31.78l-5.11 7.34C184.29 126.9 172.63 170 134 170z"/></g></svg>