<?xml version="1.0" encoding="utf-8"?>
<!-- Generator: Adobe Illustrator 23.0.6, SVG Export Plug-In . SVG Version: 6.00 Build 0)  -->
<svg version="1.1" id="Capa_1" xmlns="http://www.w3.org/2000/svg" xmlns:xlink="http://www.w3.org/1999/xlink" x="0px" y="0px"
	 viewBox="0 0 260 260" style="enable-background:new 0 0 260 260;" xml:space="preserve">
<defs><style>.cls-1,.cls-1{fill:#237aba;}.cls-1{fill-rule:evenodd;}</style></defs>
<title>4</title>
<g>
	<path class="cls-1" d="M131,10C64.7,10,11,63.7,11,130s53.7,120,120,120s120-53.7,120-120S197.3,10,131,10z M103.6,33.8
		C89.5,46.7,78.3,62.4,71,80H44.4C57.4,57.6,78.6,41,103.6,33.8z M35.6,100h28.9c-2.3,9.8-3.5,19.9-3.5,30s1.2,20.2,3.5,30H35.6
		C29.4,140.5,29.4,119.5,35.6,100z M103.5,226.2c-21.8-6.3-40.8-19.8-53.9-38.1c-0.4-0.5-0.7-1.1-1.1-1.6c-0.5-0.8-1.1-1.5-1.6-2.3
		c-0.9-1.4-1.7-2.7-2.5-4.1H71C78.4,197.6,89.5,213.3,103.5,226.2L103.5,226.2L103.5,226.2z M121,214.9c-11.6-9.6-21.2-21.4-28-34.9
		h28V214.9z M121,160H85.1c-5.5-19.6-5.5-40.4,0-60H121V160z M121,80H93c6.8-13.4,16.4-25.3,28-34.9V80z M217.6,80h-0.1H191
		c-7.4-17.6-18.5-33.3-32.6-46.2C183.4,41,204.6,57.6,217.6,80z M141,45.2c10.5,8.6,19.2,19.1,25.9,30.9c0.7,1.3,1.4,2.6,2.1,3.9
		h-28V45.2z M141,100h35.8c2.8,9.8,4.2,19.9,4.2,30s-1.4,20.2-4.1,30h-0.1H141V100z M141,214.9V180h28
		C162.2,193.5,152.6,205.3,141,214.9z M186.3,213.2c-8.5,5.7-17.9,10.1-27.9,13c6.1-5.6,11.7-11.7,16.7-18.3
		c6.4-8.6,11.8-17.9,15.9-27.9h26.5C209.7,193.5,199,204.7,186.3,213.2z M197.5,160c4.7-19.7,4.7-40.3,0-60h28.9
		c6.2,19.5,6.2,40.5,0,60H197.5z"/>
	<path class="cls-1" d="M64.5,160c-2.3-9.8-3.5-19.9-3.5-30s1.2-20.2,3.5-30C59.8,119.7,59.8,140.3,64.5,160z"/>
	<path class="cls-1" d="M35.6,100c-6.2,19.5-6.2,40.5,0,60c-3-9.7-4.6-19.8-4.6-30S32.6,109.7,35.6,100z"/>
	<path class="cls-1" d="M49.6,188.1c13.1,18.3,32.1,31.8,53.9,38.1l0,0C81.6,219.8,62.7,206.4,49.6,188.1z"/>
	<path class="cls-1" d="M175.1,207.9c-4.9,6.6-10.5,12.7-16.7,18.3C164.5,220.6,170.1,214.5,175.1,207.9z"/>
	<path class="cls-1" d="M186.3,213.2c12.7-8.5,23.4-19.7,31.2-33.2C209.7,193.4,199,204.7,186.3,213.2z"/>
	<path class="cls-1" d="M141,214.9c11.6-9.6,21.2-21.4,28-34.9C162.2,193.4,152.6,205.3,141,214.9z"/>
	<path class="cls-1" d="M176.8,160h0.1c2.7-9.8,4.1-19.9,4.1-30s-1.4-20.2-4.2-30C182.3,119.6,182.3,140.4,176.8,160z"/>
	<path class="cls-1" d="M71,180c7.3,17.6,18.5,33.3,32.5,46.2c0.1,0,0.1,0,0.1,0C89.5,213.3,78.4,197.6,71,180z"/>
	<path class="cls-1" d="M93,180c6.8,13.5,16.4,25.3,28,34.9C109.4,205.3,99.8,193.4,93,180z"/>
	<path class="cls-1" d="M85.1,100c-5.5,19.6-5.5,40.4,0,60c-2.7-9.8-4.1-19.9-4.1-30S82.4,109.8,85.1,100z"/>
	<path class="cls-1" d="M217.5,80h0.1c-13-22.4-34.2-39-59.2-46.2C183.3,41,204.5,57.6,217.5,80z"/>
	<path class="cls-1" d="M166.9,76.1c-6.7-11.8-15.4-22.3-25.9-30.9C151.4,53.8,160.2,64.3,166.9,76.1z"/>
	<path class="cls-1" d="M175.1,207.9c6.4-8.6,11.8-17.9,15.9-27.9C186.8,189.9,181.5,199.3,175.1,207.9z"/>
	<path class="cls-1" d="M186.3,213.2c-8.5,5.7-17.9,10.1-27.9,13C168.4,223.3,177.8,218.9,186.3,213.2z"/>
	<path class="cls-1" d="M226.4,100c6.1,19.5,6.1,40.5,0,60C232.6,140.5,232.6,119.5,226.4,100z"/>
</g>
</svg>
