<svg xmlns="http://www.w3.org/2000/svg" xmlns:xlink="http://www.w3.org/1999/xlink" viewBox="0 0 600 600"><defs><style>.cls-1{fill:none;}.cls-2{fill:url(#Degradado_sin_nombre_12);}.cls-3{fill:#1464a5;}.cls-4{fill:#00d0cf;}.cls-5{fill:url(#Degradado_sin_nombre_9);}.cls-6{fill:#028484;}.cls-7{fill:#f7b27f;}.cls-8{fill:#ef9a60;}.cls-9{fill:#1973b8;}.cls-10{clip-path:url(#clip-path);}.cls-11{fill:url(#Degradado_sin_nombre_5);}.cls-12{fill:#ffaf75;}.cls-13{fill:#c65302;}.cls-14{fill:#ea6b02;isolation:isolate;opacity:0.48;}.cls-15{fill:#49a5e6;}.cls-16{fill:url(#Degradado_sin_nombre_38);}.cls-17{fill:#002e65;}.cls-18{fill:#004481;}.cls-19{fill:url(#Degradado_sin_nombre_3);}.cls-20{fill:#003165;}.cls-21{fill:#da3851;}.cls-22{fill:#d4edfc;}.cls-23{fill:url(#Degradado_sin_nombre_39);}.cls-24{fill:url(#Degradado_sin_nombre_3-2);}.cls-25{fill:#1bccce;}.cls-26{fill:#fff;}</style><linearGradient id="Degradado_sin_nombre_12" x1="219.83" y1="153.05" x2="422.78" y2="534.75" gradientUnits="userSpaceOnUse"><stop offset="0" stop-color="#082146" stop-opacity="0.5"/><stop offset="1" stop-color="#082146" stop-opacity="0"/></linearGradient><linearGradient id="Degradado_sin_nombre_9" x1="268.08" y1="322.19" x2="124.8" y2="318.64" gradientUnits="userSpaceOnUse"><stop offset="0" stop-color="#008785" stop-opacity="0.6"/><stop offset="1" stop-color="#008785" stop-opacity="0"/></linearGradient><clipPath id="clip-path"><path class="cls-1" d="M78.33,330.82c5.66,1.66,14.79,5.52,14.79,10.81l-4,21.2,135.25,7.7c-1.93,1.59-6.08,9.69-8.7,10.24L71.73,400a16.14,16.14,0,0,1-19.16-12.4h0l3.22-59.95a37.12,37.12,0,0,1,5.48-.05A79.16,79.16,0,0,1,78.33,330.82Z"/></clipPath><linearGradient id="Degradado_sin_nombre_5" x1="177.55" y1="6633.04" x2="113.76" y2="6664.31" gradientTransform="translate(0 -6278)" gradientUnits="userSpaceOnUse"><stop offset="0" stop-color="#ef9a60"/><stop offset="0.2" stop-color="#f09d64"/><stop offset="0.37" stop-color="#f3a56e"/><stop offset="0.64" stop-color="#f6af7b"/><stop offset="0.99" stop-color="#f7b27f"/></linearGradient><linearGradient id="Degradado_sin_nombre_38" x1="511.9" y1="309.57" x2="391.6" y2="331.36" gradientUnits="userSpaceOnUse"><stop offset="0" stop-color="#003267" stop-opacity="0.4"/><stop offset="1" stop-color="#003267" stop-opacity="0"/></linearGradient><linearGradient id="Degradado_sin_nombre_3" x1="433.13" y1="-2286.16" x2="377.19" y2="-2313.59" gradientTransform="matrix(1, -0.01, -0.01, -1, -2.63, -1936.82)" gradientUnits="userSpaceOnUse"><stop offset="0" stop-color="#ef9a60"/><stop offset="0.27" stop-color="#f3a56e"/><stop offset="0.64" stop-color="#f6af7b"/><stop offset="0.99" stop-color="#f7b27f"/></linearGradient><linearGradient id="Degradado_sin_nombre_39" x1="435.6" y1="-2310.03" x2="231.51" y2="-2310.03" gradientTransform="matrix(1, 0, 0, -1, 0, -1928.62)" gradientUnits="userSpaceOnUse"><stop offset="0.01" stop-color="#003267" stop-opacity="0.1"/><stop offset="1" stop-color="#003267" stop-opacity="0"/></linearGradient><linearGradient id="Degradado_sin_nombre_3-2" x1="304.85" y1="-2342.73" x2="241.64" y2="-2373.72" gradientTransform="matrix(1, 0, 0, -1, 0, -1926.62)" xlink:href="#Degradado_sin_nombre_3"/></defs><g id="Capa_3" data-name="Capa 3"><path class="cls-2" d="M562.25,301.45a75.91,75.91,0,0,0-15.86-15.64A73,73,0,0,0,526,275.28a75,75,0,0,0-23.45-3.66c-.12,0-7.41.51-9.51.75a2.4,2.4,0,0,0-.57.09s0,.09,0,.13,0,.35,0,.53l-3.54-21-.45-2.64c.61-.83,1.21-1.67,1.77-2.54a58,58,0,0,0,8.33-18.76c.28-1.33.62-2.66,1-4a7.09,7.09,0,0,0,1.72-1.27,29.56,29.56,0,0,0,8.17-12.58c1.49-5.46,2.25-15.19-1.62-17-.11,0-.23-.08-.34-.12,5.69-6.41,13.57-16.82,10.34-22.28,0,0-13.32-22.95-17.54-25.06-1.78-.89-6.08-.84-17.08,1.13,0,0-1.09-12.67-9.23-12.55l-66.23.45s-9.18-.45,5.74,26.29l-11.62,6.11s-4,1.76-1.67,6.36a115.49,115.49,0,0,0,6.66,11.45c1.72,2.61,3.34,5,4.77,7h-.11a4.48,4.48,0,0,0-2.55,2.21c-4,6.62,2.45,20.41,3.53,22.65.56,1.1,3,5.51,7.35,7.12a7.59,7.59,0,0,0,2,.59c.81,2.67,1.7,5.31,2.7,7.91.33.74.74,1.61,1.1,2.5a67.32,67.32,0,0,0,5.18,8.83,55.54,55.54,0,0,0,6.43,8.15l-1.82,21.84a16.23,16.23,0,0,1-.14-1.7c0-.07-2.84-.12-5.64-.15l-4.24,0c-10.33-7.18-21.68-13.82-28.82-24.17,2.69-7-.73-18.89-6.4-31.57v-.06c1.17-20.34-.51-35.5-16.71-50.82-11.81-11.17-30.73-16.22-47.6-15.79a72.06,72.06,0,0,0-41.23,14.54,84.51,84.51,0,0,0-30.91,45.29c-7.14,26.88,1,55.57,16,79.74.41.68.85,1.33,1.27,2l-5.57-2.48c-4.92-2.38-21.79-8.94-25.49-10.51h-.39c-3.09-.65-13.35-2.58-21.06-8.55-4.85-3.75-6.2-12.81-7.67-20.72,10.07-6.29,12.72-17.38,15.29-25.08a8.19,8.19,0,0,0,1.72-.49c4.24-1.53,6.62-5.66,7.16-6.65.93-1.86,6-12.16,4.39-18.76a47,47,0,0,0,4.22-16c.83-10.92-1.73-10.56-4.89-19.37l5.92,7.62s0-20.07-9.73-27.62c-10.06-7.79-20.12-5.25-20.12-5.25l10-2.77s-18.87-12.26-40.09-7.55c-16.53,3.68-22.41,15.1-22.41,15.1s-9.56.73-16.27,5.19-10.61,19.57-10.61,19.57l10.44-3.2s-7.56,7.08-8.32,14.58a23.12,23.12,0,0,0,2.65,13.15l1.36-12,2.74,16c0,.07-.09.12-.13.19-3.91,6.16,2.39,19,3.45,21.07.54,1,2.91,5.12,7.15,6.65a8.3,8.3,0,0,0,3.44.62,66.89,66.89,0,0,0,5.78,9.82c2.4,3.38,5.11,9.4,10.75,13.91-.17.93-.33,1.86-.52,2.79-.46,2.07-3.95,15.54-6.5,18.7a10.57,10.57,0,0,1-1.18,1.25l-.44.37-.19.15-.64.49h0c-5.28,3.77-14.41,6.09-19,7.24-.73.15-1.46.34-2.21.56l-.49.16a28,28,0,0,0-2.83,1.06c-5.89,2.41-11.18,4.78-15.62,6.87l-2.85,1.35-6,2.66c-1.26.5-2.55,1.06-3.88,1.72l-.5.22c-.4.19-.81.41-1.21.62-1.38.69-2.77,1.43-4.18,2.27-.75.44-1.48.9-2.21,1.38a62.82,62.82,0,0,0-8.47,6.59c-.81.75-1.6,1.51-2.37,2.3s-1.32,1.41-2,2.13a60.94,60.94,0,0,0-7.74,11.05c-.56,1-1.09,2.07-1.59,3.13a64.83,64.83,0,0,0-3.75,9.83,31.91,31.91,0,0,0-.67,3.68c-.33,2.34-.67,5.54-.82,9.09A77.84,77.84,0,0,0,77,355.61c.09.92.19,1.83.32,2.73-.37,1.94,1.74,4.41,5.56,6.94l-2.11,39.18c-3.29.27-8.59.92-8.73,2.33-.83,8.33,1.24,22,15.4,24.52l100.86-12.44c-.13,3.85-.15,7.67-.15,11.42,0,1.82-.32,4.42.39,7a3.42,3.42,0,0,0,0,.45c0,3.57,4.69,6.75,12.38,8.87V477a14.55,14.55,0,0,0,8,13.37A15.92,15.92,0,0,0,215,492.7l42.67-5.61a70,70,0,0,0,139.94-2.58v-.08L426,490.5a18.61,18.61,0,0,0,22.09-14.31h0l7.82-36.6c4.43-2,7-4.41,7-7a4.63,4.63,0,0,0-.07-.74,4.17,4.17,0,0,0,.32-1.54,182.22,182.22,0,0,0-1.24-24.81l15.16-2.08c2.48-.26,9-.78,10.93-1.44h0l65.36,13.6a16.47,16.47,0,0,0,19.48-12.77h0l6.75-32.43a13,13,0,0,0,5.41-3.92,4.16,4.16,0,0,0,1.31-.2.07.07,0,0,0,0-.06C587.28,336.45,571.94,314.44,562.25,301.45Z"/><g id="Capa_25" data-name="Capa 25"><path class="cls-3" d="M281.64,305.08a65.64,65.64,0,0,0-5.34-13,60.45,60.45,0,0,0-9.7-13.17,62.7,62.7,0,0,0-13.05-10.27c-1.82-1.09-3.63-2-5.39-2.89h0l-.51-.22c-1.28-.61-2.55-1.17-3.77-1.67l-6.1-2.72c-4.92-2.38-21.78-8.94-25.49-10.5l-46.13.5-30.45-1.23c-3.68,1.55-13-1.33-22.72,3-7.19,2.95-13.53,5.84-18.47,8.22l-6,2.66c-1.26.5-2.55,1.06-3.89,1.72l-.5.22h0q-2.64,1.28-5.39,2.89a63.22,63.22,0,0,0-13,10.27A61.16,61.16,0,0,0,56,292.09a65.38,65.38,0,0,0-5.34,13c-.61,2-2.58,15.29-.94,26.07.92,6,8.38-1.11,9.72,5.33l20.19,5.16-2.14,40L91.4,394.84l84-12.58,64,6.22,15.38-6.9-2.14-40,20.19-5.16c1.34-6.44,8.8.65,9.71-5.33C284.22,320.37,282.25,307.12,281.64,305.08Z"/><path class="cls-4" d="M282.57,331.16c-.91,6-8.37-1.1-9.71,5.34l-20.19,5.16.15,2.8c-8.72-.47-15.26-.85-15.26-.85,0,4.53,9.16,17,16.7,27.77l.55,10.24L243,386.94,169,378.62l-58.86,9.82-21.7,3.62-11-10.44.43-8c8.8-12.18,18.77-25.68,18.77-30.05,0,0-7.69,3.3-17.51,6.42l.43-8.42-20.19-5.16c-1.34-6.44-8.8.65-9.71-5.33-1.64-10.78.32-24,.94-26.07a65.38,65.38,0,0,1,5.34-13,60.51,60.51,0,0,1,9.7-13.18,62.7,62.7,0,0,1,13-10.27c1.82-1.08,3.63-2,5.39-2.89l.5-.22c1.33-.66,2.62-1.22,3.88-1.72l6-2.66c4.94-2.38,11.27-5.27,18.47-8.22,9.74-4.34,19-1.46,22.72-3l2.42.09c2.79,10,14.08,20,29,20.19a34.72,34.72,0,0,0,12.21-2.34c8.9-3.42,15.51-10.15,17.72-17l15.26-.17c3.7,1.56,20.57,8.12,25.49,10.5l6.09,2.72c1.23.5,2.5,1.06,3.78,1.67l.51.22c1.76.85,3.56,1.8,5.39,2.89a63.22,63.22,0,0,1,13.05,10.27,61.1,61.1,0,0,1,9.7,13.17,65.72,65.72,0,0,1,5.34,13C282.25,307.13,284.22,320.38,282.57,331.16Z"/><path class="cls-5" d="M282.57,331.16c-.91,6-8.37-1.1-9.71,5.34l-20.19,5.16.15,2.8c-8.72-.47-15.26-.85-15.26-.85,0,4.53,9.16,17,16.7,27.77l.55,10.24L243,386.94,169,378.62l-58.86,9.82,69.14-120.58c8.9-3.42,15.51-10.15,17.72-17l15.26-.17c3.7,1.56,20.57,8.12,25.49,10.5l6.09,2.72c1.23.5,2.5,1.06,3.78,1.67l.51.22c1.76.85,3.56,1.8,5.39,2.89a63.22,63.22,0,0,1,13.05,10.27,61.1,61.1,0,0,1,9.7,13.17,65.72,65.72,0,0,1,5.34,13C282.25,307.13,284.22,320.38,282.57,331.16Z"/><polyline class="cls-6" points="92.53 342.22 100.6 328.22 94.97 369.3 91.72 371.18 85.19 359.44"/><path class="cls-6" d="M49.74,330.54c-1.23,4.15,9.58,11,24.19,15.26s13.26,4.13,14.46,0c.73-2.49,5-4.42,5-4.42-1-5.28-9.27-8.84-15-10.52C63.74,326.53,51,326.4,49.74,330.54Z"/><path class="cls-7" d="M78.33,330.82c5.66,1.66,14.79,5.52,14.79,10.81l-4,19.46,135.25,9.44c-1.93,1.59-6.08,9.69-8.7,10.24L71.73,400a16.14,16.14,0,0,1-19.16-12.4h0l3.22-59.95a37.12,37.12,0,0,1,5.48-.05A79.16,79.16,0,0,1,78.33,330.82Z"/><path class="cls-7" d="M212.78,250.87c-1.25,7.3-3.49,31.39-48.39,31.39-45.11,0-49.68-27.8-48.64-30.36,1.48-.68,19-3.77,24.32-10.27,2.54-3.16,6-16.63,6.49-18.7a103.87,103.87,0,0,0,1.86-13.6c.11-1.35.23-2.78.36-4.37.35-4.42.74-10,1.21-17a10.85,10.85,0,0,1,.47-2.64,7.48,7.48,0,0,1,.67-1.47c4.83-8.1,25.05-9.45,29.73-3,1.23,1.7,1.08,3.56.89,5.59v.27a129.48,129.48,0,0,0-.56,13.92c0,1,0,1.94,0,2.88,0,1.61.14,3.14.23,4.59a89.34,89.34,0,0,0,1.35,11.3c1.64,8.32,2.78,18.62,8,22.69C199.72,249,212,250.49,212.78,250.87Z"/><path class="cls-8" d="M181.17,222.09c.36-.84.74-1.71,1.08-2.63l.2-1.63a93.24,93.24,0,0,1-1.06-9.74c-.1-1.47-.2-3-.23-4.59V203L149,201.78c-.09,1.12-.17,2.22-.26,3.2-.13,1.59-.25,3-.36,4.37a105.34,105.34,0,0,1-1.85,13.6c-.46,2.07-4,15.55-6.49,18.71-1.48,1.86-4,3.44-6.91,4.77-.78,1.47,10,.26,14.58-1,10.07-2.68,16.5-4.42,24.32-10.27C175,232.94,178.24,228.55,181.17,222.09Z"/><polyline class="cls-9" points="239.8 342.22 231.73 328.22 237.35 369.3 240.61 371.18 247.14 359.44"/><path class="cls-9" d="M282.59,330.54c1.22,4.15-9.62,11-24.2,15.26s-13.26,4.13-14.45,0c-.74-2.49-5-4.42-5-4.42,1-5.28,9.26-8.84,15-10.52C268.59,326.53,281.38,326.4,282.59,330.54Z"/><path class="cls-8" d="M187,372.41l6.54-22.18.18-.61.2-.28,10.92-15.69a2.21,2.21,0,1,1,3.86,2.14h0l-.08.2L201,353.73l.63-1.47-2.75,23.1a6.17,6.17,0,0,1-12.25-1.47,6.43,6.43,0,0,1,.2-1Z"/><path class="cls-8" d="M195.68,383.55c1.2,1.55,6.22,4.93,7.66,3.83,8.23-6.34,25.71-26.63,27.44-33.68,2.36-5.71-11.43-24.2-13.36-24.31-4.46-.26-22.48,38.71-22.48,38.71C180.9,381.75,192.44,379.32,195.68,383.55Z"/><g class="cls-10"><path class="cls-11" d="M197.71,386.71c-10.84-2.51-39.63-7.37-51.66-10.83l-90.35.83s-11.09.46-11.29,2.5c-.83,8.33,1.24,22,15.4,24.52l124.57-15.36C186.36,388.11,195.21,387.54,197.71,386.71Z"/></g><path class="cls-7" d="M254,330.82c-5.66,1.66-14.79,5.52-14.79,10.81l4.1,17.18-143.51,4c1.93,1.6,12.4,10.48,15,11.06l144,23.9a16.13,16.13,0,0,0,19.16-12.37v0h0l-1.38-57.69a37.12,37.12,0,0,0-5.48,0A79.89,79.89,0,0,0,254,330.82Z"/></g><path class="cls-8" d="M127.21,172.62s-4.4-7.49-8.25-6.61a4.31,4.31,0,0,0-2.49,2.08c-3.91,6.16,2.39,19,3.45,21.07.54,1,2.91,5.12,7.15,6.66a8.29,8.29,0,0,0,5.18.39,5.8,5.8,0,0,0,1.75-.8C138.62,191.07,127.21,172.62,127.21,172.62Z"/><path class="cls-8" d="M200.05,172.62s4.39-7.49,8.24-6.61a4.28,4.28,0,0,1,2.49,2.08c3.92,6.16-2.39,19-3.44,21.07-.54,1-2.92,5.12-7.16,6.66a8.29,8.29,0,0,1-5.18.39,5.85,5.85,0,0,1-1.74-.8C188.64,191.07,200.05,172.62,200.05,172.62Z"/><path class="cls-12" d="M123.72,161.78c-.75,5.93-.52,26,12.57,44.48,3.51,4.94,7.7,15.54,20.74,18.79a36.41,36.41,0,0,0,21.46-1.32c15.55-6,17.56-21.61,20.94-30.13,6.19-15.72,8.74-29.15,8.31-32.2-.85-6.4-2.73-20.55-14.38-32.07a40.76,40.76,0,0,0-29.86-11,40.06,40.06,0,0,0-28.18,13.46C126.13,142.58,124.64,154.42,123.72,161.78Z"/><path class="cls-13" d="M122.77,185a182.34,182.34,0,0,1,9.16-22c5.25-10.27,9.38-19.38,9.38-19.38a29.17,29.17,0,0,1,11.28,4.81c6.6,4.86,18.69,4.24,18.69,4.24l-11.94-10.52s14.45,4.89,18.14,6.48S188.16,153,188.16,153s-1.48-6.15-5.78-8.42-5.38-4.82-5.38-4.82,12.25,2.35,16.14,8.37S199.31,167,199.31,167l4.19-5.56,1.65,19.47A48,48,0,0,0,216,154.43c.84-10.92-1.73-10.56-4.89-19.37l5.92,7.63s0-20.08-9.73-27.63c-10.06-7.79-20.12-5.24-20.12-5.24l10-2.78S178.24,94.78,157,99.5c-16.53,3.67-22.4,15.09-22.4,15.09s-9.57.73-16.28,5.19-10.61,19.57-10.61,19.57l10.44-3.2s-7.56,7.08-8.32,14.59a23.16,23.16,0,0,0,2.65,13.14l1.36-12,3.62,21.23,3.26-.83Z"/><path class="cls-12" d="M467.89,263.78c-.86,1.48-11.43,13.94-30.71,14.9-18.44.93-29.67-12.88-30.86-14.39l4.85-58.5,47.14,1.59,3,17.16Z"/><path class="cls-14" d="M456.39,225.32a43.27,43.27,0,0,1-10.14,16.48c-8,7.95-15.37,8.08-26.18,17.25a63.1,63.1,0,0,0-9.43,9.83c-.7-.66-1.53-1.45-2.31-2.29-.61-.7-1.48-1.62-2-2.24,1.62-19.51,3.22-38.16,4.84-57.66l47.13,1.59Q457.35,216.78,456.39,225.32Z"/><path class="cls-3" d="M534.68,273.87A74.08,74.08,0,0,0,475,244c-.15,0-10.08.7-10.09.84-.17,10.58-12.8,22.6-29,22.86h0c-16.18-.13-27.93-12.53-28.21-23.08,0-.14-10.89-.2-11-.2a74,74,0,0,0-59.39,30.48c-9.56,13.09-23.23,35.24-23.47,65-.17,22.09,55.78-2.27,55.78-2.27,0,8.22-37,50.74-28.79,49.61l97.5-16.8L527,380c8.22,1-23.93-34.79-24-43,0,0,55.75,3,55.79,1.67C559.71,308.87,544.36,286.86,534.68,273.87Z"/><path class="cls-15" d="M558.8,338.59c0,1.3-55.8-1.67-55.8-1.67.05,8.24,32.2,44.07,24,43l-88.73-9.5-60.42,10.41-37.08,6.39c-8.21,1.13,28.84-41.39,28.79-49.61,0,0-55.95,24.36-55.77,2.27.24-29.73,13.91-51.88,23.46-65a74,74,0,0,1,59.4-30.48c.15,0,11,.06,11,.2.14,5.27,3.15,11,8.15,15.45a30.57,30.57,0,0,0,20.06,7.63,33.33,33.33,0,0,0,7.37-.95c12.51-3.07,21.49-13,21.63-21.91,0-.14,9.94-.84,10.08-.84a74.07,74.07,0,0,1,59.73,29.83C544.36,286.86,559.7,308.87,558.8,338.59Z"/><path class="cls-16" d="M558.8,338.59c0,1.3-55.8-1.67-55.8-1.67.05,8.24,32.2,44.07,24,43l-88.73-9.5-60.42,10.41,65.41-114.07c12.51-3.07,21.49-13,21.63-21.91,0-.14,9.94-.84,10.08-.84a74.07,74.07,0,0,1,59.73,29.83C544.36,286.86,559.7,308.87,558.8,338.59Z"/><path class="cls-17" d="M379.61,342.31c0,5.67-14.65,10.35-32.76,10.45S314,348.33,314,342.67s14.65-10.33,32.77-10.43S379.58,336.64,379.61,342.31Z"/><polygon class="cls-17" points="384.59 314.66 384.05 348.06 378.06 346.36 384.59 314.66"/><polyline class="cls-18" points="504.02 320.94 499.89 307.61 501.54 348.55 506.16 350.27 504.1 335.81"/><path class="cls-18" d="M558.24,336.53c0,6-15.54,11-34.79,11.08s-34.87-4.7-34.91-10.71,15.55-11,34.8-11.08S558.2,330.51,558.24,336.53Z"/><path class="cls-8" d="M456.86,355.77l6.56-22.68.19-.63.19-.28,11.09-16.08a2.27,2.27,0,0,1,4,2.17l-.08.2-7.66,18.16.63-1.54-2.66,23.61a6.3,6.3,0,1,1-12.51-1.42,6.81,6.81,0,0,1,.2-1Z"/><path class="cls-8" d="M465.83,367.1c1.23,1.58,7,7,8.52,5.87,8.34-6.51,25.42-29.33,27.14-36.53,2.38-5.83-11.8-24.64-13.77-24.74-4.55-.24-22.73,39.64-22.73,39.64C450.75,365.34,462.5,362.82,465.83,367.1Z"/><path class="cls-7" d="M380.07,352.23,380,341c-2-5.2-16.19-9.17-33.39-9.07A90.93,90.93,0,0,0,327,334l.24,43.55c0,8.33,6.83,14.15,15.15,13l181.42-24.9a17.84,17.84,0,0,0,14.71-14.25Z"/><path class="cls-19" d="M460.45,374.38c-9.42-2.12-34.44-6.22-44.9-9.16l-78.45,1.12s-9.62.45-9.76,2.22c-.66,7.24-.59,20.25,11.7,22.37l109.84-15C450.6,375.67,458.28,375.11,460.45,374.38Z"/><path class="cls-7" d="M526.63,326.46a74.3,74.3,0,0,0-20.43,2.78l-1.66,8L373.07,354.32a16.38,16.38,0,0,0,7,3.35L525.81,388a16.49,16.49,0,0,0,19.49-12.77h0l9-43.35C548.23,328.55,538.11,326.4,526.63,326.46Z"/><path class="cls-8" d="M392.33,171.66s-4.51-8-8.46-7.11a4.52,4.52,0,0,0-2.55,2.21c-4,6.62,2.45,20.41,3.53,22.65.56,1.1,3,5.51,7.35,7.12a8,8,0,0,0,5.31.43,5.64,5.64,0,0,0,1.78-.86C404,191.53,392.33,171.66,392.33,171.66Z"/><path class="cls-8" d="M472,169.22c1.19-1.1,5.29-4.72,8.14-3.42,3.87,1.76,3.11,11.49,1.62,17a29.59,29.59,0,0,1-8.17,12.57,7,7,0,0,1-3.79,2,3.39,3.39,0,0,1-.9,0C467.79,196.93,467.89,190.8,472,169.22Z"/><path class="cls-12" d="M434.3,115.26c-7.73-.36-15.28-7.59-22.16-4A45.68,45.68,0,0,0,397.8,123c-7.4,11.64-9.09,21.45-9.43,27.37-.23,3.89.09,8,.74,16.34a150.82,150.82,0,0,0,2.36,19.54A115.36,115.36,0,0,0,396.91,205c.33.74.74,1.61,1.1,2.5a68.45,68.45,0,0,0,5.18,8.83,55.54,55.54,0,0,0,10.28,11.83c3.89,3.22,9.38,7.72,17.75,8.67a29.54,29.54,0,0,0,18.14-4.18,44.46,44.46,0,0,0,13.23-13.32,58,58,0,0,0,8.33-18.76c1.37-6.5,4-12.9,4.9-20.71,1.11-9.53,0-19.1,0-27a76,76,0,0,0-4.7-17.39c-1.6-4-15.46-4.09-17.72-7.71-3.5-5.23,3.77-13.28-1.68-16.42C446.43,108.39,440.37,115.58,434.3,115.26Z"/><path class="cls-20" d="M490.18,143.4s-13.31-23-17.54-25.06c-1.78-.89-6.08-.84-17.08,1.13,0,0-1.09-12.67-9.23-12.54l-66.23.44s-9.18-.45,5.75,26.29l-11.63,6.11s-4,1.76-1.67,6.36a113.93,113.93,0,0,0,6.67,11.46c5.29,8.06,9.82,13.76,9.82,13.76C440.44,145.28,450,134,450,134c.7-1,22.42,16.41,24.63,37.24C474.59,171.19,495.06,151.65,490.18,143.4Z"/><path class="cls-21" d="M257,136.6a72,72,0,0,1,41.23-14.53c16.88-.44,35.79,4.61,47.6,15.78,16.2,15.32,17.88,30.48,16.71,50.82-.56,9.65-.45,19.75,4.38,28.39,14.42,25.79,54.26,29.35,54.55,63.57.12,14.27-8.1,28.39-21.22,36.49,22.61,10.83,35.44,35.29,32,58s-22.1,42.74-45.87,51.33c-23.92,8.63-52,4.84-76-2.1-22.92-6.64-35.66-36.23-33.53-56.13.55-5.14,18.24-45.91,22.52-41.81-21.07-20.18-42.37-40.64-57.31-64.81s-23.11-52.86-16-79.75A84.55,84.55,0,0,1,257,136.6"/><path class="cls-8" d="M254.35,210.1s-4.67-7.95-8.75-7a4.54,4.54,0,0,0-2.65,2.21c-4.15,6.54,2.54,20.14,3.66,22.36.58,1.06,3.1,5.45,7.6,7.07a8.79,8.79,0,0,0,5.5.43,6.64,6.64,0,0,0,1.85-.86C266.46,229.69,254.35,210.1,254.35,210.1Z"/><path class="cls-22" d="M396.85,424.79c0-6.88,4.72-10.5,6.29-10.5,22,0,32.46-6.67,32.46-11.58,0-18-.5-37.68-11.8-53.76-10.07-14.33-27.66-27.77-66.7-40.3-.16-.06-15.72-.7-18.71-.68-.57,0-3.37,0-5.44-.11-1.73,12.26-15.4,25.71-33.94,25.95h-1.9c-18.57-.24-32.21-13.69-33.94-25.95-2.07.16-4.87.11-5.44.11-3,0-18.57.62-18.71.68-39,12.53-56.63,26-66.7,40.3-11.35,16.08-11.8,35.71-11.8,53.76,0,4.91-2.35,15.61,19.69,15.61,1.57,0,18.39,10.58,18.39,17.46,0,4.75,21.11-3.1,8.54-1-12.63,18.5,5.29,16.45,12.4,15.52l80.36-9.71,97.15,14.09c7.11.92,4.56-1.4-8.07-19.9C376.41,432.69,396.85,429.54,396.85,424.79Z"/><path class="cls-23" d="M396.85,424.79c0-6.88,4.72-10.5,6.29-10.5,22,0,32.46-6.67,32.46-11.58,0-18-.5-37.68-11.8-53.76-10.07-14.33-27.66-27.77-66.7-40.3-.16-.06-15.72-.7-18.71-.68-.57,0-3.37,0-5.44-.11-1.67,11.81-14.44,24.76-31.92,25.86L231.51,455l82.24-11.2,83.3,10.91c7.11.93,4.56-1.4-8.07-19.9C376.41,432.69,396.85,429.54,396.85,424.79Z"/><path class="cls-15" d="M233.51,410.12c0,6.4-16.61,11.6-37.07,11.6s-35.57-5.17-35.57-11.57,15.11-11.61,35.57-11.61S233.51,403.7,233.51,410.12Z"/><polygon class="cls-15" points="240.03 379.57 238.23 426.9 229.96 421.75 240.03 379.57"/><polyline class="cls-15" points="374.2 387.06 369.62 371.97 371.23 418.23 376.44 420.2 374.2 403.86"/><path class="cls-15" d="M435.35,405c0,6.8-17.62,12.3-39.36,12.3s-39.37-5.52-39.37-12.3,17.63-12.32,39.37-12.32S435.35,398.2,435.35,405Z"/><path class="cls-8" d="M320.72,426.12l7.54-25.58.22-.71.22-.32,12.62-18.1a2.56,2.56,0,0,1,4.46,2.48l-.09.22-8.76,20.47.72-1.73L334.5,429.5a7.11,7.11,0,1,1-14.12-1.68,7.28,7.28,0,0,1,.22-1.13Z"/><path class="cls-8" d="M330.78,439c1.38,1.8,7.89,8,9.58,6.69,9.47-7.31,28.9-33,30.9-41.11,2.72-6.57-13.19-27.9-15.41-28-5.14-.3-25.93,44.65-25.93,44.65C313.76,436.9,327,434.11,330.78,439Z"/><path class="cls-7" d="M233.05,421.13V408.4c-2.24-5.89-18.23-10.46-37.66-10.46a103.53,103.53,0,0,0-22.14,2.24v49.19c0,9.42,7.62,16,17,14.8l205.09-27a20.17,20.17,0,0,0,16.71-16Z"/><path class="cls-24" d="M324.66,447.17c-10.63-2.46-38.87-7.25-50.67-10.63l-88.63.79s-10.88.46-11,2.45c-.79,8.17-.79,22.88,13.08,25.34L311.58,448.8C313.52,448.56,322.21,448,324.66,447.17Z"/><path class="cls-7" d="M399.72,393.43a83.79,83.79,0,0,0-23.1,3l-1.93,9L226.06,424a18.44,18.44,0,0,0,7.89,3.82l164.46,35.13a18.61,18.61,0,0,0,22.09-14.31h0L431,399.7C424.1,395.92,412.68,393.43,399.72,393.43Z"/><path class="cls-12" d="M356.23,308.65c-1.43,8.33-3.86,42.78-55,42.78-51.42,0-57.69-39.84-56.52-42.76.21-.54,1.41-.74,2.29-1.08,8-1.09,20.45-4.84,26.45-12.25a30.15,30.15,0,0,0,5.84-11.77c.53-1.81,1-3.84,1.57-6.18A119.2,119.2,0,0,0,283,261.88c.13-1.54.26-3.17.42-5,.39-5.08.85-11.35,1.38-19.36a11.74,11.74,0,0,1,.53-3,8.06,8.06,0,0,1,.77-1.69c5.5-9.26,28.55-10.78,33.89-3.47,1.4,1.93,1.22,4.07,1,6.38v.29a147.91,147.91,0,0,0-.63,15.89v3.29c0,1.83.16,3.58.27,5.23a96.12,96.12,0,0,0,1.54,12.88c1.87,9.49,3.16,16,9.16,20.66a118,118,0,0,0,21,12.67C353.23,307.21,356.37,308,356.23,308.65Z"/><path class="cls-14" d="M333,231c-.75,6.21-1.53,12.42-2.3,18.63-.4,1-.83,2-1.22,3A46,46,0,0,1,319,267.52c-9.22,8.65-17.66,8.76-30.07,18.71-4.26,3.4-13.22,6-14.5,7.74,7.68-8,11.12-49.94,11.77-60.71a17.2,17.2,0,0,1,.64-4l43.43,1.62Z"/><path class="cls-12" d="M248.89,194.69c-.95,7.46-.65,32.76,15.81,55.95,4.41,6.22,9.68,19.55,26.08,23.63a45.77,45.77,0,0,0,27-1.66c19.56-7.6,22.09-27.18,26.33-37.89,7.79-19.77,11-36.66,10.46-40.5-1.07-8.06-3.43-25.85-18.09-40.34a51.23,51.23,0,0,0-37.56-13.82A50.32,50.32,0,0,0,263.48,157C251.92,170.54,250.05,185.44,248.89,194.69Z"/><path class="cls-21" d="M248,151.76s19.56,43.91,91.68,70.71-7.42-85.62-7.42-85.62l-53.94-6.7Z"/><path class="cls-25" d="M370,456.93a70,70,0,1,1-70-70,70,70,0,0,1,70,70v0"/><path class="cls-26" d="M330.7,451.09H306.15V426.53a5.8,5.8,0,0,0-11.6,0v24.56H270a5.81,5.81,0,0,0,0,11.61h24.55v24.58a5.8,5.8,0,1,0,11.6,0V462.72h24.56a5.8,5.8,0,0,0,0-11.6Z"/><rect class="cls-1" width="600" height="600"/></g></svg>