<svg id="adc2c1d2-f8fa-4021-8b5b-fd351bda5800" data-name="Blue" xmlns="http://www.w3.org/2000/svg" viewBox="0 0 260 260"><g id="b23d127d-17fd-448f-9174-3caa965f65c2" data-name="icons"><polygon points="100.76 101.05 90.14 111.67 90.14 111.68 100.76 101.05 100.76 101.05"/><polygon points="190.53 156.49 179.91 145.87 179.91 145.87 190.53 156.49 190.53 156.49"/><polygon points="69.47 156.49 69.47 156.49 72.12 153.84 69.47 156.49"/><path d="M220,152.25C220.18,64.62,130,10,130,10h0S39.82,64.62,40,152.25C40.1,202,82.49,242.79,120,250V209.51L68.23,157.72l1.24-1.23h0l2.66-2.65,10.26-10.28L120,181.17V148.32L86.76,115.07l3.38-3.39h0l10.62-10.62h0l.15-.15,19,19.09V64.23h20V120L159,100.9l14.15,14.17L140,148.32v32.85l37.6-37.61,2.3,2.31h0l10.62,10.62h0l1.24,1.23L140,209.51V250C177.49,242.74,219.9,202,220,152.25Z"/></g></svg>