<svg id="b9dfc780-94eb-4418-8da7-111e5a59aca8" data-name="Blue" xmlns="http://www.w3.org/2000/svg" viewBox="0 0 260 260"><defs><style>.a2eb4a85-2ed2-46af-86c7-026944578a92{fill-rule:evenodd;}</style></defs><polygon class="a2eb4a85-2ed2-46af-86c7-026944578a92" points="110 145 140 145 150 135 110 135 110 145"/><path class="a2eb4a85-2ed2-46af-86c7-026944578a92" d="M130,75a19.93,19.93,0,0,0-20,20v10h40V95A20,20,0,0,0,130,75Z"/><path class="a2eb4a85-2ed2-46af-86c7-026944578a92" d="M239.9,25a10.09,10.09,0,0,0-10-10H30A10,10,0,0,0,20,25V95c0,140,110,150,110,150S240,235,240,95ZM170,165a10,10,0,0,1-10,10H99.9a10,10,0,0,1-10-10V115a10,10,0,0,1,10-10h0V95a30,30,0,0,1,60,0v10h0a10,10,0,0,1,10,10l.1,50Z"/></svg>